<?xml version="1.0" encoding="UTF-8" standalone="no"?>
<!-- Generator: Adobe Illustrator 19.0.0, SVG Export Plug-In . SVG Version: 6.00 Build 0)  -->

<svg
   version="1.1"
   id="Layer_1"
   x="0px"
   y="0px"
   viewBox="0 0 450.00001 450.00001"
   xml:space="preserve"
   sodipodi:docname="torch_topological.svg"
   inkscape:version="1.1.1 (3bf5ae0d25, 2021-09-20, custom)"
   width="450"
   height="450"
   xmlns:inkscape="http://www.inkscape.org/namespaces/inkscape"
   xmlns:sodipodi="http://sodipodi.sourceforge.net/DTD/sodipodi-0.dtd"
   xmlns="http://www.w3.org/2000/svg"
   xmlns:svg="http://www.w3.org/2000/svg"><defs
   id="defs893" /><sodipodi:namedview
   id="namedview891"
   pagecolor="#ffffff"
   bordercolor="#666666"
   borderopacity="1.0"
   inkscape:pageshadow="2"
   inkscape:pageopacity="0.0"
   inkscape:pagecheckerboard="0"
   showgrid="false"
   inkscape:snap-global="true"
   inkscape:snap-nodes="false"
   inkscape:snap-others="true"
   inkscape:snap-page="true"
   inkscape:snap-center="true"
   inkscape:snap-object-midpoints="true"
   inkscape:zoom="0.60710007"
   inkscape:cx="135.06834"
   inkscape:cy="79.064395"
   inkscape:window-width="1920"
   inkscape:window-height="1119"
   inkscape:window-x="0"
   inkscape:window-y="0"
   inkscape:window-maximized="1"
   inkscape:current-layer="layer2"
   fit-margin-top="0"
   fit-margin-left="0"
   fit-margin-right="0"
   fit-margin-bottom="0" />
<g
   inkscape:groupmode="layer"
   id="layer2"
   inkscape:label="Foreground"
   style="display:inline"
   transform="translate(-99.120433,114.34386)"><g
     id="g4766"
     transform="translate(0,-13.03357)"><path
       d="m 455.6114,-50.607019 c -5.02968,-11.885211 -13.40411,-21.963681 -23.94884,-29.086623 -5.27374,-3.567483 -11.10351,-6.393538 -17.32339,-8.322828 -6.2241,-1.93867 -12.85015,-2.97836 -19.66367,-2.97836 -4.6518,0 -9.18141,0.52574 -13.51646,1.5185 -8.14198,1.84945 -15.54913,5.29021 -22.24487,9.61824 -5.86756,3.78108 -11.22609,8.25192 -16.25571,13.080258 -5.01797,4.841919 -9.72398,10.056843 -14.24168,15.415128 3.79279,4.642443 7.47083,9.336438 11.05242,13.92264 l 0.28635,0.370836 c 1.79549,2.295387 3.60503,4.618953 5.43338,6.925878 0.37788,-0.467064 0.76042,-0.934128 1.14064,-1.391796 4.07915,-4.959261 8.13956,-9.601398 12.18801,-13.715946 3.04175,-3.091023 6.07389,-5.879331 9.09009,-8.289774 4.53448,-3.628539 9.00539,-6.388722 13.42516,-8.219484 2.21559,-0.912978 4.43353,-1.598355 6.67952,-2.065383 2.25081,-0.467055 4.5462,-0.711153 6.96133,-0.711153 5.51318,0 10.69554,1.110168 15.43615,3.112164 7.10433,2.999511 13.19504,8.050041 17.47601,14.3919 2.14049,3.166119 3.8327,6.6537 4.98744,10.371681 1.1571,3.722382 1.78378,7.66791 1.78378,11.805291 0,5.517864 -1.11017,10.700343 -3.10749,15.44337 -3.00653,7.099505 -8.05484,13.195024 -14.39669,17.47119 -3.17082,2.140493 -6.65851,3.828003 -10.37649,4.98745 -3.71769,1.161779 -7.66791,1.783771 -11.80109,1.783771 -2.65919,0 -5.16818,-0.29807 -7.63726,-0.85902 -3.2342,-0.739339 -6.41937,-1.943356 -9.63206,-3.626187 -1.06786,-0.563284 -2.14517,-1.173499 -3.22481,-1.842417 -3.23421,-1.9972994 -6.49869,-4.471075 -9.77746,-7.369881 -1.2322,-1.084341 -2.46441,-2.224971 -3.69654,-3.419625 -3.70129,-3.58863 -7.41195,-7.64207 -11.12935,-12.002957 -3.10044,-3.642597 -6.21268,-7.491861 -9.35025,-11.465217 -1.87998,-2.375172 -3.76931,-4.799673 -5.68214,-7.24311 -5.16818,-6.611634 -10.43959,-13.375872 -15.99974,-19.881765 -4.17302,-4.874778 -8.50067,-9.611019 -13.10551,-14.025987 -3.45249,-3.313989 -7.06226,-6.447006 -10.8854,-9.308196 -0.71584,-0.535122 -1.43871,-1.060848 -2.17101,-1.577205 -5.12588,-3.616758 -10.64627,-6.733614 -16.64264,-9.038424 -5.56012,-2.14049 -11.53551,-3.55342 -17.79506,-4.00405 -1.44574,-0.10562 -2.90091,-0.1596 -4.37722,-0.1549 -9.09251,0 -17.82811,1.8471 -25.74898,5.19864 -11.88519,5.034368 -21.95886,13.39931 -29.08661,23.94884 -3.5628,5.273748 -6.39353,11.103507 -8.32282,17.328204 -1.94102,6.212673 -2.98071,12.835719 -2.98071,19.654038 0,9.092502 1.84945,17.828101 5.20339,25.748964 5.02968,11.885192 13.39931,21.958861 23.94885,29.086622 5.27374,3.562789 11.10351,6.393525 17.32339,8.327023 6.21989,1.933982 12.84534,2.973673 19.66366,2.973673 4.64713,0 9.18143,-0.530427 13.51407,-1.513811 8.14198,-1.854128 15.54912,-5.294899 22.24968,-9.618237 5.86756,-3.781076 11.22127,-8.256729 16.25089,-13.084468 5.01797,-4.837238 9.72399,-10.0520392 14.2417,-15.415125 -3.81161,-4.663533 -7.50329,-9.374293 -11.10352,-13.981528 l -0.2394,-0.307458 c -1.79079,-2.295387 -3.60503,-4.618953 -5.4287,-6.925878 -0.38257,0.462366 -0.76042,0.934128 -1.14063,1.396476 -4.08384,4.954572 -8.14198,9.597195 -12.19283,13.715957 -3.04175,3.086324 -6.07388,5.874579 -9.0901,8.294574 -4.52978,3.6261826 -9.00537,6.388724 -13.42515,8.214674 -2.21558,0.917665 -4.42883,1.603044 -6.67952,2.070071 -2.25081,0.462367 -4.54151,0.711155 -6.95652,0.711155 -5.51786,0 -10.70033,-1.11017 -15.43856,-3.11686 -7.10432,-2.9995 -13.19502,-8.045828 -17.4712,-14.387084 -2.14048,-3.170809 -3.83269,-6.658502 -4.99213,-10.376492 -1.1524,-3.717693 -1.77902,-7.667901 -1.77902,-11.805291 0,-5.517864 1.11017,-10.700334 3.10747,-15.443361 3.00654,-7.104321 8.05486,-13.195026 14.39671,-17.471196 3.16612,-2.145186 6.65369,-3.832695 10.37169,-4.987449 3.71769,-1.157094 7.66791,-1.783764 11.80528,-1.783764 2.6592,0 5.16818,0.298062 7.63246,0.859014 4.31151,0.983394 8.53853,2.797623 12.85675,5.468598 3.2389,2.001996 6.50108,4.475772 9.77747,7.372296 4.92405,4.337334 9.87177,9.606213 14.83111,15.427143 4.96396,5.820624 9.93728,12.192831 15.02338,18.698715 5.16817,6.611625 10.43958,13.378282 15.99974,19.886565 4.17302,4.879481 8.50067,9.611027 13.1055,14.030796 0.86137,0.828496 1.7321,1.645279 2.61929,2.452631 2.65452,2.4057 5.39586,4.70577 8.26396,6.855566 5.72912,4.290352 11.9603,7.977344 18.81346,10.615632 0.42951,0.164291 0.85903,0.323887 1.29085,0.478792 6.48966,2.33763 13.52129,3.684828 20.89117,3.680143 9.09009,0 17.82329,-1.847099 25.74476,-5.198643 11.8852,-5.029686 21.95886,-13.404119 29.08662,-23.948841 3.56279,-5.2737477 6.39774,-11.103512 8.32702,-17.328201 1.94336,-6.233709 2.97836,-12.852552 2.97836,-19.670268 0,-9.097308 -1.84709,-17.832906 -5.19864,-25.748955 z"
       id="path1235"
       style="display:inline;stroke-width:0.600836" /><g
       id="g856"
       style="display:inline;fill:#000000;fill-opacity:1;stroke:none;stroke-opacity:1"
       transform="translate(74.496433,-163.62375)">
		<g
   id="g854"
   style="fill:#000000;fill-opacity:1;stroke:none;stroke-opacity:1">
			
			
			
			
			
			<path
   d="m 330.578,216.923 h -11.062 c -26.99161,0.76556 -33.61768,-0.25551 -43.147,-0.001 -32.86965,-0.91197 -32.81622,-0.52919 -44.159,0 h -11.396 c -0.207,-0.053 -0.411,-0.11 -0.623,-0.15 -19.01822,0.30185 -4.33009,0.0616 -35.694,0.15 H 168.67 c -5.523,0 -10,4.477 -10,10 v 73.046 c 0,5.523 4.477,10 10,10 h 20.123 v 23.135 c 0,5.523 4.477,10 10,10 h 7.32 v 115.384 c 0,23.992 19.519,43.511 43.511,43.511 23.992,0 43.511,-19.519 43.511,-43.511 V 343.104 h 7.32 c 5.523,0 10,-4.477 10,-10 v -23.135 h 20.123 c 5.523,0 10,-4.477 10,-10 v -73.046 c 0,-5.523 -4.477,-10 -10,-10 z m -57.443,241.565 c 0,12.964 -10.547,23.511 -23.511,23.511 -12.964,0 -23.511,-10.547 -23.511,-23.511 V 343.104 h 47.022 z m 17.321,-135.384 h -81.663 v -13.135 h 81.663 z m 30.122,-33.135 H 178.67 v -8.97 c -1.69056,5.43565 0,-20 0,-20 v -24.076 h 141.908 z"
   id="path850"
   style="fill:#000000;fill-opacity:1;stroke:none;stroke-opacity:1"
   sodipodi:nodetypes="sccccccsssscsscssscsscsssssssccscccccccccccc" />
			
		</g>
	</g></g></g><g
   id="g2132"
   transform="translate(-1.208641,-256.27683)" />
<g
   id="g860"
   transform="translate(-99.120433,114.34386)">
</g>
<g
   id="g862"
   transform="translate(-99.120433,114.34386)">
</g>
<g
   id="g864"
   transform="translate(-99.120433,114.34386)">
</g>
<g
   id="g866"
   transform="translate(-99.120433,114.34386)">
</g>
<g
   id="g868"
   transform="translate(-99.120433,114.34386)">
</g>
<g
   id="g870"
   transform="translate(-99.120433,114.34386)">
</g>
<g
   id="g872"
   transform="translate(-99.120433,114.34386)">
</g>
<g
   id="g874"
   transform="translate(-99.120433,114.34386)">
</g>
<g
   id="g876"
   transform="translate(-99.120433,114.34386)">
</g>
<g
   id="g878"
   transform="translate(-99.120433,114.34386)">
</g>
<g
   id="g880"
   transform="translate(-99.120433,114.34386)">
</g>
<g
   id="g882"
   transform="translate(-99.120433,114.34386)">
</g>
<g
   id="g884"
   transform="translate(-99.120433,114.34386)">
</g>
<g
   id="g886"
   transform="translate(-99.120433,114.34386)">
</g>
<g
   id="g888"
   transform="translate(-99.120433,114.34386)">
</g>
<g
   inkscape:groupmode="layer"
   id="layer1"
   inkscape:label="Background"
   style="display:inline"
   transform="translate(-99.120433,114.34386)"><g
     id="g858"
     style="display:inline">
	
</g></g></svg>
